<svg width="209" height="133" viewBox="0 0 209 133" fill="none" xmlns="http://www.w3.org/2000/svg">
<g clip-path="url(#clip0)">
<path d="M0 30C0 13.4315 13.4315 0 30 0H179C195.569 0 209 13.4315 209 30V103C209 119.569 195.569 133 179 133H30C13.4315 133 0 119.569 0 103V30Z" fill="white" fill-opacity="0.2"/>
<path fill-rule="evenodd" clip-rule="evenodd" d="M157.916 60.2647C155.049 67.3853 145.144 67.8102 138.83 72.2016C133.761 75.7276 130.359 81.0253 124.654 83.4014C117.259 86.4814 109.288 89.9719 101.592 87.711C93.1807 85.2399 86.0179 78.8068 82.215 70.9332C78.3877 63.009 78.9066 53.7514 81.0769 45.2364C83.156 37.0795 87.6204 29.7058 94.0986 24.3095C100.342 19.109 108.27 14.8663 116.356 15.8491C123.922 16.7686 127.761 25.1379 134.215 29.1852C140.127 32.8933 148.189 32.9212 152.416 38.4637C157.082 44.5822 160.784 53.1424 157.916 60.2647Z" fill="#A80081"/>
<path fill-rule="evenodd" clip-rule="evenodd" d="M83.912 83.8111C76.4501 82.2692 68.1067 83.5838 62.1875 78.7818C55.4772 73.3379 49.6407 65.1184 50.2186 56.4767C50.7917 47.908 58.4358 41.6647 65.0367 36.1797C70.3963 31.7261 77.7724 31.7875 83.9046 28.4854C92.195 24.021 97.6716 13.1724 107.068 13.5463C116.577 13.9246 125.215 21.6954 129.324 30.2927C133.222 38.4504 129.801 47.927 127.707 56.7352C126.059 63.6705 123.117 69.9993 118.579 75.4935C114.275 80.7046 109.162 85.5584 102.601 87.1325C96.2892 88.6469 90.2636 85.1236 83.912 83.8111Z" fill="#FFDA00"/>
<mask id="mask0" mask-type="alpha" maskUnits="userSpaceOnUse" x="73" y="10" width="93" height="88">
<path fill-rule="evenodd" clip-rule="evenodd" d="M158.146 60.1785C155.279 67.2991 145.374 67.724 139.061 72.1155C133.992 75.6415 130.59 80.9392 124.885 83.3152C117.489 86.3953 109.518 89.8857 101.822 87.6248C93.4109 85.1537 86.2481 78.7207 82.4452 70.8471C78.6179 62.9229 79.1368 53.6652 81.3072 45.1503C83.3862 36.9934 87.8506 29.6197 94.3288 24.2234C100.572 19.0228 108.501 14.7802 116.586 15.7629C124.152 16.6825 127.991 25.0518 134.445 29.0991C140.358 32.8072 148.42 32.835 152.646 38.3775C157.312 44.496 161.014 53.0562 158.146 60.1785Z" fill="#D56E42"/>
</mask>
<g mask="url(#mask0)">
<path fill-rule="evenodd" clip-rule="evenodd" d="M84.1428 83.725C76.6808 82.1831 68.3374 83.4977 62.4183 78.6957C55.7079 73.2518 49.8714 65.0323 50.4493 56.3906C51.0224 47.8219 58.6666 41.5786 65.2674 36.0936C70.6271 31.64 78.0032 31.7014 84.1353 28.3993C92.4257 23.9349 97.9023 13.0863 107.299 13.4602C116.807 13.8385 125.446 21.6093 129.554 30.2066C133.453 38.3643 130.032 47.8409 127.938 56.6491C126.289 63.5844 123.347 69.9133 118.81 75.4075C114.506 80.6185 109.392 85.4723 102.831 87.0465C96.5199 88.5608 90.4943 85.0375 84.1428 83.725Z" fill="#D56E42"/>
</g>
<path d="M33.9965 109.617C34.4213 109.617 34.7836 109.52 35.0834 109.324C35.3832 109.128 35.6268 108.874 35.8142 108.561C36.0016 108.236 36.139 107.864 36.2265 107.447C36.3139 107.03 36.3577 106.593 36.3577 106.137V99H40.0118V106.137C40.0118 107.101 39.8931 108.007 39.6558 108.855C39.4184 109.689 39.0499 110.412 38.5502 111.025C38.0504 111.638 37.4196 112.12 36.6575 112.472C35.9079 112.824 35.0209 113 33.9965 113C32.9346 113 32.0227 112.818 31.2606 112.453C30.511 112.074 29.8927 111.573 29.4054 110.947C28.9182 110.321 28.5622 109.598 28.3373 108.777C28.1124 107.942 28 107.062 28 106.137V99H31.6541V106.137C31.6541 106.593 31.6979 107.036 31.7853 107.466C31.8728 107.884 32.0102 108.255 32.1976 108.581C32.385 108.894 32.6223 109.148 32.9097 109.344C33.2095 109.526 33.5718 109.617 33.9965 109.617Z" fill="black"/>
<path d="M54.7626 106.059V112.883H51.1085V99H53.9568L59.2975 106.059V99H62.9516V112.883H60.0471L54.7626 106.059Z" fill="black"/>
<path d="M74.2309 112.883V99H79.3466C80.446 99 81.4142 99.1825 82.2512 99.5475C83.0882 99.9125 83.7878 100.408 84.35 101.034C84.9122 101.659 85.3369 102.396 85.6243 103.243C85.9116 104.077 86.0553 104.97 86.0553 105.922C86.0553 106.978 85.8929 107.936 85.5681 108.796C85.2557 109.643 84.806 110.373 84.2188 110.986C83.6317 111.586 82.9258 112.055 82.1013 112.394C81.2768 112.72 80.3586 112.883 79.3466 112.883H74.2309ZM82.3449 105.922C82.3449 105.387 82.2762 104.899 82.1388 104.455C82.0014 104.012 81.8015 103.634 81.5391 103.321C81.2893 103.008 80.977 102.767 80.6022 102.598C80.2274 102.415 79.8089 102.324 79.3466 102.324H77.885V109.559H79.3466C79.8214 109.559 80.2461 109.467 80.6209 109.285C80.9957 109.102 81.308 108.848 81.5579 108.522C81.8202 108.196 82.0139 107.812 82.1388 107.369C82.2762 106.926 82.3449 106.443 82.3449 105.922Z" fill="black"/>
<path d="M96.6395 112.883V99H100.294V112.883H96.6395Z" fill="black"/>
<path d="M114.149 99L116.754 108.092L119.321 99H123.163L118.272 112.883H115.236L110.289 99H114.149Z" fill="black"/>
<path d="M133.167 112.883V99H136.821V112.883H133.167Z" fill="black"/>
<path d="M148.109 112.883V99H153.225C154.324 99 155.293 99.1825 156.13 99.5475C156.967 99.9125 157.666 100.408 158.228 101.034C158.791 101.659 159.215 102.396 159.503 103.243C159.79 104.077 159.934 104.97 159.934 105.922C159.934 106.978 159.771 107.936 159.446 108.796C159.134 109.643 158.684 110.373 158.097 110.986C157.51 111.586 156.804 112.055 155.98 112.394C155.155 112.72 154.237 112.883 153.225 112.883H148.109ZM156.223 105.922C156.223 105.387 156.155 104.899 156.017 104.455C155.88 104.012 155.68 103.634 155.418 103.321C155.168 103.008 154.855 102.767 154.481 102.598C154.106 102.415 153.687 102.324 153.225 102.324H151.763V109.559H153.225C153.7 109.559 154.125 109.467 154.499 109.285C154.874 109.102 155.186 108.848 155.436 108.522C155.699 108.196 155.892 107.812 156.017 107.369C156.155 106.926 156.223 106.443 156.223 105.922Z" fill="black"/>
<path d="M180 109.559V112.883H170.518V99H179.831V102.324H174.172V104.279H179.007V107.369H174.172V109.559H180Z" fill="black"/>
</g>
<defs>
<clipPath id="clip0">
<rect width="209" height="133" fill="white"/>
</clipPath>
</defs>
</svg>
