<svg width="105" height="72" viewBox="0 0 105 72" fill="none" xmlns="http://www.w3.org/2000/svg">
<g clip-path="url(#clip0)">
<rect width="105" height="72" fill="white"/>
<rect width="104.977" height="72" rx="10.9924" fill="white" fill-opacity="0.2"/>
<path fill-rule="evenodd" clip-rule="evenodd" d="M81.6688 32.6245C80.1166 36.4793 74.7545 36.7093 71.3368 39.0866C68.5926 40.9954 66.751 43.8633 63.6625 45.1496C59.659 46.817 55.3437 48.7066 51.1775 47.4826C46.6241 46.1449 42.7465 42.6623 40.6878 38.4C38.6159 34.1102 38.8968 29.0985 40.0717 24.4889C41.1972 20.0731 43.614 16.0813 47.121 13.16C50.5008 10.3447 54.793 8.04793 59.1703 8.57996C63.2661 9.07777 65.3443 13.6085 68.838 15.7995C72.0389 17.8069 76.4032 17.822 78.6914 20.8224C81.2174 24.1347 83.2214 28.7688 81.6688 32.6245Z" fill="#A80081"/>
<path fill-rule="evenodd" clip-rule="evenodd" d="M41.6065 45.3714C37.5669 44.5367 33.0502 45.2484 29.8459 42.6488C26.2132 39.7017 23.0536 35.2521 23.3664 30.5738C23.6767 25.9352 27.8149 22.5553 31.3883 19.586C34.2897 17.175 38.2828 17.2082 41.6024 15.4206C46.0905 13.0039 49.0553 7.13089 54.1421 7.3333C59.2897 7.53814 63.9661 11.7449 66.1902 16.399C68.3007 20.8153 66.4486 25.9454 65.3151 30.7138C64.4227 34.4682 62.8301 37.8944 60.3735 40.8687C58.0435 43.6897 55.2754 46.3173 51.7237 47.1695C48.3069 47.9893 45.0449 46.0819 41.6065 45.3714Z" fill="#FFDA00"/>
<mask id="mask0" mask-type="alpha" maskUnits="userSpaceOnUse" x="36" y="5" width="50" height="48">
<path fill-rule="evenodd" clip-rule="evenodd" d="M81.7933 32.5778C80.2411 36.4326 74.879 36.6626 71.4613 39.04C68.7172 40.9488 66.8755 43.8167 63.7871 45.103C59.7836 46.7704 55.4682 48.6599 51.302 47.436C46.7486 46.0982 42.871 42.6157 40.8123 38.3533C38.7404 34.0635 39.0213 29.0518 40.1962 24.4422C41.3217 20.0265 43.7385 16.0347 47.2455 13.1134C50.6253 10.2981 54.9175 8.00127 59.2948 8.5333C63.3907 9.03111 65.4688 13.5618 68.9625 15.7529C72.1634 17.7603 76.5278 17.7753 78.8159 20.7758C81.3419 24.088 83.3459 28.7221 81.7933 32.5778Z" fill="#D56E42"/>
</mask>
<g mask="url(#mask0)">
<path fill-rule="evenodd" clip-rule="evenodd" d="M41.7313 45.3248C37.6917 44.4901 33.175 45.2017 29.9706 42.6021C26.338 39.6551 23.1783 35.2054 23.4912 30.5272C23.8014 25.8885 27.9396 22.5087 31.513 19.5394C34.4145 17.1284 38.4076 17.1616 41.7272 15.374C46.2153 12.9572 49.18 7.08426 54.2668 7.28667C59.4144 7.49151 64.0909 11.6982 66.315 16.3524C68.4254 20.7686 66.5734 25.8988 65.4399 30.6672C64.5474 34.4216 62.9548 37.8478 60.4982 40.8221C58.1683 43.6431 55.4002 46.2707 51.8484 47.1229C48.4316 47.9427 45.1697 46.0353 41.7313 45.3248Z" fill="#D56E42"/>
</g>
<path d="M14.8953 59.0653C15.1258 59.0653 15.3224 59.0145 15.4851 58.9128C15.6478 58.8111 15.78 58.6789 15.8816 58.5163C15.9833 58.3468 16.0579 58.1536 16.1053 57.9367C16.1528 57.7198 16.1765 57.4927 16.1765 57.2554V53.5441H18.1593V57.2554C18.1593 57.757 18.0949 58.2282 17.9661 58.6688C17.8373 59.1026 17.6373 59.4788 17.3662 59.7974C17.095 60.116 16.7527 60.3668 16.3392 60.5498C15.9325 60.7329 15.4512 60.8244 14.8953 60.8244C14.3192 60.8244 13.8243 60.7295 13.4108 60.5397C13.0041 60.3431 12.6686 60.0821 12.4042 59.7567C12.1398 59.4314 11.9466 59.0552 11.8246 58.6281C11.7026 58.1943 11.6416 57.7367 11.6416 57.2554V53.5441H13.6243V57.2554C13.6243 57.4927 13.6481 57.7232 13.6955 57.9468C13.743 58.1638 13.8175 58.357 13.9192 58.5264C14.0209 58.6891 14.1497 58.8213 14.3056 58.923C14.4683 59.0179 14.6649 59.0653 14.8953 59.0653Z" fill="black"/>
<path d="M26.1631 57.2148V60.7634H24.1803V53.5441H25.7259L28.6237 57.2148V53.5441H30.6065V60.7634H29.0304L26.1631 57.2148Z" fill="black"/>
<path d="M36.7266 60.7634V53.5441H39.5025C40.099 53.5441 40.6243 53.639 41.0785 53.8288C41.5327 54.0186 41.9123 54.2762 42.2173 54.6016C42.5223 54.927 42.7528 55.31 42.9087 55.7506C43.0646 56.1844 43.1426 56.6487 43.1426 57.1436C43.1426 57.6926 43.0545 58.1909 42.8782 58.6383C42.7088 59.0789 42.4647 59.4585 42.1461 59.7771C41.8275 60.0889 41.4445 60.3329 40.9972 60.5092C40.5498 60.6786 40.0515 60.7634 39.5025 60.7634H36.7266ZM41.1293 57.1436C41.1293 56.8657 41.0921 56.6115 41.0175 56.381C40.9429 56.1505 40.8345 55.9539 40.6921 55.7912C40.5565 55.6286 40.3871 55.5032 40.1837 55.415C39.9804 55.3201 39.7533 55.2727 39.5025 55.2727H38.7094V59.0348H39.5025C39.7601 59.0348 39.9905 58.9874 40.1939 58.8925C40.3972 58.7976 40.5667 58.6654 40.7023 58.4959C40.8446 58.3264 40.9497 58.1265 41.0175 57.896C41.0921 57.6655 41.1293 57.4147 41.1293 57.1436Z" fill="black"/>
<path d="M48.8856 60.7634V53.5441H50.8684V60.7634H48.8856Z" fill="black"/>
<path d="M58.3864 53.5441L59.7997 58.2722L61.1927 53.5441H63.2772L60.6233 60.7634H58.9761L56.2918 53.5441H58.3864Z" fill="black"/>
<path d="M68.7056 60.7634V53.5441H70.6883V60.7634H68.7056Z" fill="black"/>
<path d="M76.8133 60.7634V53.5441H79.5892C80.1857 53.5441 80.711 53.639 81.1652 53.8288C81.6194 54.0186 81.999 54.2762 82.304 54.6016C82.609 54.927 82.8395 55.31 82.9954 55.7506C83.1513 56.1844 83.2293 56.6487 83.2293 57.1436C83.2293 57.6926 83.1412 58.1909 82.9649 58.6383C82.7955 59.0789 82.5514 59.4585 82.2328 59.7771C81.9142 60.0889 81.5312 60.3329 81.0838 60.5092C80.6365 60.6786 80.1382 60.7634 79.5892 60.7634H76.8133ZM81.216 57.1436C81.216 56.8657 81.1788 56.6115 81.1042 56.381C81.0296 56.1505 80.9212 55.9539 80.7788 55.7912C80.6432 55.6286 80.4738 55.5032 80.2704 55.415C80.0671 55.3201 79.84 55.2727 79.5892 55.2727H78.7961V59.0348H79.5892C79.8468 59.0348 80.0772 58.9874 80.2806 58.8925C80.4839 58.7976 80.6534 58.6654 80.789 58.4959C80.9313 58.3264 81.0364 58.1265 81.1042 57.896C81.1788 57.6655 81.216 57.4147 81.216 57.1436Z" fill="black"/>
<path d="M94.1173 59.0348V60.7634H88.9723V53.5441H94.0258V55.2727H90.9551V56.2895H93.5784V57.896H90.9551V59.0348H94.1173Z" fill="black"/>
</g>
<defs>
<clipPath id="clip0">
<rect width="105" height="72" fill="white"/>
</clipPath>
</defs>
</svg>
